# xmcd
#
# Track frame offsets: 
#        150
#        20455
#        45507
#        58017
#        79690
#        97940
#        112862
#
# Disc length: 1689 seconds
#
# Revision: 9
# Processed by: cddbd v1.5.2PL0 Copyright (c) Steve Scherf et al.
# Submitted via: ExactAudioCopy v1.0b3
#
DISCID=46069707
DTITLE=Kasey Chambers - The Captain - Special Bonus Edition - Disc 2
DYEAR=2003
DGENRE=Country
TTITLE0=I Still Pray (Featuring Paul Kelly and Uncle Bill)
TTITLE1=Dam
TTITLE2=Freight Train
TTITLE3=Water In The Fuel
TTITLE4=Another Lonely Day
TTITLE5=Better Be Home Soon
TTITLE6=Heartbreak Heartmend
EXTD=
EXTT0=
EXTT1=
EXTT2=
EXTT3=
EXTT4=
EXTT5=
EXTT6=
PLAYORDER=
